<?xml version="1.0" standalone="no"?>
<!DOCTYPE svg PUBLIC "-//W3C//DTD SVG 20010904//EN"
 "http://www.w3.org/TR/2001/REC-SVG-20010904/DTD/svg10.dtd">
<svg version="1.0" xmlns="http://www.w3.org/2000/svg"
 width="17pt" height="17pt" viewBox="0 0 980.000000 982.000000"
 preserveAspectRatio="xMidYMid meet">

<g transform="translate(0.000000,982.000000) scale(0.100000,-0.100000)"
fill="#a87e3a" stroke="none">
<path d="M6631 9805 c-79 -18 -127 -49 -211 -135 -207 -214 -389 -569 -446
-875 -28 -147 -28 -662 0 -780 53 -228 198 -550 351 -780 375 -564 929 -1007
1495 -1196 353 -117 683 -127 1055 -30 284 74 587 239 770 417 130 127 162
207 152 374 -36 578 -709 1546 -1582 2275 -593 496 -1261 803 -1584 730z m815
-716 c205 -62 446 -231 797 -557 272 -254 533 -549 679 -771 160 -242 217
-442 146 -513 -18 -18 -29 -20 -102 -16 -98 6 -187 40 -339 132 -404 242
-1045 886 -1290 1294 -64 106 -92 176 -114 277 -16 79 -11 127 18 156 26 26
116 25 205 -2z"/>
<path d="M5214 7537 c-519 -370 -780 -564 -828 -617 -51 -57 -70 -130 -69
-270 1 -183 42 -328 163 -575 224 -460 652 -954 1126 -1301 295 -216 677 -400
904 -435 116 -18 265 -9 324 20 57 28 132 102 213 209 169 223 773 1079 770
1092 -1 8 -29 24 -62 36 -33 13 -105 39 -160 60 -424 157 -942 526 -1262 898
-286 333 -531 758 -648 1126 -10 30 -21 58 -24 63 -4 4 -205 -133 -447 -306z"/>
<path d="M3195 7190 c-556 -38 -1244 -441 -1451 -852 -85 -170 -117 -332 -118
-603 0 -196 11 -312 46 -475 85 -398 300 -880 593 -1325 689 -1047 1803 -1920
2826 -2215 252 -72 461 -97 734 -87 192 7 307 33 449 100 130 62 205 115 320
226 254 248 438 573 531 938 49 196 59 288 59 573 0 260 -6 352 -40 551 l-17
97 -101 -49 c-126 -61 -194 -79 -321 -86 -396 -22 -935 212 -1455 632 -354
286 -620 579 -878 965 -181 271 -292 503 -352 732 -41 159 -53 261 -48 396 6
145 34 253 93 356 l43 75 -52 10 c-109 23 -208 32 -435 41 -257 10 -265 10
-426 0z"/>
<path d="M1977 2503 c-1823 -2098 -1812 -2085 -1898 -2198 -85 -111 -94 -147
-58 -221 28 -58 93 -92 147 -76 54 17 292 218 1572 1332 421 366 883 768 1027
893 144 125 264 231 268 237 3 5 -2 24 -11 41 -16 32 -530 559 -545 559 -5 0
-230 -255 -502 -567z"/>
</g>
</svg>
